<svg width="24" height="24" viewBox="0 0 24 24" fill="none" xmlns="http://www.w3.org/2000/svg">
<path fill-rule="evenodd" clip-rule="evenodd" d="M1.70711 0.292893C1.31658 -0.0976311 0.683418 -0.0976311 0.292893 0.292893C-0.0976311 0.683418 -0.0976311 1.31658 0.292893 1.70711L10.3393 11.7535L0.330137 21.7627C-0.0603882 22.1532 -0.0603872 22.7863 0.330137 23.1769C0.720661 23.5674 1.35383 23.5674 1.74435 23.1769L11.7535 13.1677L21.7627 23.1769C22.1532 23.5674 22.7863 23.5674 23.1769 23.1769C23.5674 22.7863 23.5674 22.1532 23.1769 21.7627L13.1677 11.7535L23.2141 1.70711C23.6046 1.31658 23.6046 0.683418 23.2141 0.292893C22.8236 -0.0976311 22.1904 -0.0976311 21.7999 0.292893L11.7535 10.3393L1.70711 0.292893Z" fill="#172B4D"/>
</svg>
