<svg width="24" height="24" viewBox="0 0 24 24" fill="none" xmlns="http://www.w3.org/2000/svg">
<path fill-rule="evenodd" clip-rule="evenodd" d="M3 4C1.34315 4 0 5.34315 0 7V17C0 18.6569 1.34315 20 3 20H21C22.6569 20 24 18.6569 24 17V7C24 5.34315 22.6569 4 21 4H3ZM3 6C2.44772 6 2 6.44772 2 7V13C2 13.5523 2.44772 14 3 14H21C21.5523 14 22 13.5523 22 13V7C22 6.44772 21.5523 6 21 6H3ZM2 17C2 16.4477 2.44772 16 3 16H7C7.55228 16 8 16.4477 8 17C8 17.5523 7.55228 18 7 18H3C2.44772 18 2 17.5523 2 17ZM11 16C10.4477 16 10 16.4477 10 17C10 17.5523 10.4477 18 11 18H21C21.5523 18 22 17.5523 22 17C22 16.4477 21.5523 16 21 16H11Z" fill="#172B4D"/>
</svg>
