<svg width="145" height="44" viewBox="0 0 145 44" fill="none" xmlns="http://www.w3.org/2000/svg">
<rect y="1" width="39" height="43" rx="2" fill="#074BBE"/>
<rect x="0.5" y="1.5" width="38" height="42" rx="1.5" stroke="black" stroke-opacity="0.21"/>
<g filter="url(#filter0_d)">
<rect x="8" y="8" width="23" height="6" rx="2" fill="white"/>
<rect x="7.5" y="7.5" width="24" height="7" rx="2.5" stroke="black" stroke-opacity="0.11"/>
</g>
<g filter="url(#filter1_d)">
<rect x="8.45135" y="17.6209" width="23" height="6" rx="2" transform="rotate(7 8.45135 17.6209)" fill="white"/>
<rect x="8.01602" y="17.0637" width="24" height="7" rx="2.5" transform="rotate(7 8.01602 17.0637)" stroke="black" stroke-opacity="0.11"/>
</g>
<g filter="url(#filter2_d)">
<rect x="8" y="30" width="23" height="6" rx="2" fill="white"/>
<rect x="7.5" y="29.5" width="24" height="7" rx="2.5" stroke="black" stroke-opacity="0.11"/>
</g>
<path d="M50.389 43V3.214H77.464V10.909H59.053V19.06H74.842V26.698H59.053V35.305H77.464V43H50.389ZM92.935 43C90.047 43 87.919 42.297 86.551 40.891C85.221 39.485 84.556 37.452 84.556 34.792V0.819999H92.992V36.445H96.754V43H92.935ZM109.746 43C106.858 43 104.73 42.297 103.362 40.891C102.032 39.485 101.367 37.452 101.367 34.792V0.819999H109.803V36.445H113.565V43H109.746ZM130.763 43.684C128.559 43.684 126.583 43.323 124.835 42.601C123.125 41.879 121.662 40.834 120.446 39.466C119.268 38.098 118.356 36.445 117.71 34.507C117.064 32.569 116.741 30.403 116.741 28.009C116.741 25.615 117.064 23.449 117.71 21.511C118.356 19.573 119.268 17.939 120.446 16.609C121.662 15.241 123.125 14.196 124.835 13.474C126.583 12.752 128.559 12.391 130.763 12.391C132.967 12.391 134.924 12.752 136.634 13.474C138.382 14.196 139.845 15.241 141.023 16.609C142.239 17.939 143.17 19.573 143.816 21.511C144.462 23.449 144.785 25.615 144.785 28.009C144.785 30.403 144.462 32.569 143.816 34.507C143.17 36.445 142.239 38.098 141.023 39.466C139.845 40.834 138.382 41.879 136.634 42.601C134.924 43.323 132.967 43.684 130.763 43.684ZM130.763 37.015C132.435 37.015 133.727 36.502 134.639 35.476C135.551 34.45 136.007 32.987 136.007 31.087V24.988C136.007 23.088 135.551 21.625 134.639 20.599C133.727 19.573 132.435 19.06 130.763 19.06C129.091 19.06 127.799 19.573 126.887 20.599C125.975 21.625 125.519 23.088 125.519 24.988V31.087C125.519 32.987 125.975 34.45 126.887 35.476C127.799 36.502 129.091 37.015 130.763 37.015Z" fill="#5E6C84"/>
<defs>
<filter id="filter0_d" x="5" y="6" width="29" height="12" filterUnits="userSpaceOnUse" color-interpolation-filters="sRGB">
<feFlood flood-opacity="0" result="BackgroundImageFix"/>
<feColorMatrix in="SourceAlpha" type="matrix" values="0 0 0 0 0 0 0 0 0 0 0 0 0 0 0 0 0 0 127 0"/>
<feOffset dy="1"/>
<feGaussianBlur stdDeviation="1"/>
<feColorMatrix type="matrix" values="0 0 0 0 0 0 0 0 0 0 0 0 0 0 0 0 0 0 0.25 0"/>
<feBlend mode="normal" in2="BackgroundImageFix" result="effect1_dropShadow"/>
<feBlend mode="normal" in="SourceGraphic" in2="effect1_dropShadow" result="shape"/>
</filter>
<filter id="filter1_d" x="4.94867" y="15.8494" width="29.1027" height="14.3012" filterUnits="userSpaceOnUse" color-interpolation-filters="sRGB">
<feFlood flood-opacity="0" result="BackgroundImageFix"/>
<feColorMatrix in="SourceAlpha" type="matrix" values="0 0 0 0 0 0 0 0 0 0 0 0 0 0 0 0 0 0 127 0"/>
<feOffset dy="1"/>
<feGaussianBlur stdDeviation="1"/>
<feColorMatrix type="matrix" values="0 0 0 0 0 0 0 0 0 0 0 0 0 0 0 0 0 0 0.25 0"/>
<feBlend mode="normal" in2="BackgroundImageFix" result="effect1_dropShadow"/>
<feBlend mode="normal" in="SourceGraphic" in2="effect1_dropShadow" result="shape"/>
</filter>
<filter id="filter2_d" x="5" y="28" width="29" height="12" filterUnits="userSpaceOnUse" color-interpolation-filters="sRGB">
<feFlood flood-opacity="0" result="BackgroundImageFix"/>
<feColorMatrix in="SourceAlpha" type="matrix" values="0 0 0 0 0 0 0 0 0 0 0 0 0 0 0 0 0 0 127 0"/>
<feOffset dy="1"/>
<feGaussianBlur stdDeviation="1"/>
<feColorMatrix type="matrix" values="0 0 0 0 0 0 0 0 0 0 0 0 0 0 0 0 0 0 0.25 0"/>
<feBlend mode="normal" in2="BackgroundImageFix" result="effect1_dropShadow"/>
<feBlend mode="normal" in="SourceGraphic" in2="effect1_dropShadow" result="shape"/>
</filter>
</defs>
</svg>
