<svg width="24" height="24" viewBox="0 0 24 24" fill="none" xmlns="http://www.w3.org/2000/svg">
<path fill-rule="evenodd" clip-rule="evenodd" d="M6.56066 4.43934C5.97487 3.85355 5.02513 3.85355 4.43934 4.43934C3.85355 5.02513 3.85355 5.97487 4.43934 6.56066L9.88348 12.0048L4.46187 17.4264C3.87608 18.0122 3.87608 18.9619 4.46187 19.5477C5.04765 20.1335 5.9974 20.1335 6.58319 19.5477L12.0048 14.1261L17.4264 19.5477C18.0122 20.1335 18.9619 20.1335 19.5477 19.5477C20.1335 18.9619 20.1335 18.0122 19.5477 17.4264L14.1261 12.0048L19.5703 6.56066C20.156 5.97487 20.156 5.02513 19.5703 4.43934C18.9845 3.85355 18.0347 3.85355 17.4489 4.43934L12.0048 9.88348L6.56066 4.43934Z" fill="#172B4D"/>
</svg>
