<svg width="24" height="24" viewBox="0 0 24 24" fill="none" xmlns="http://www.w3.org/2000/svg">
<path fill-rule="evenodd" clip-rule="evenodd" d="M1 5C0.447715 5 0 5.44772 0 6C0 6.55228 0.447716 7 1 7H23C23.5523 7 24 6.55228 24 6C24 5.44772 23.5523 5 23 5H1ZM1 9C0.447715 9 0 9.44771 0 10C0 10.5523 0.447716 11 1 11H23C23.5523 11 24 10.5523 24 10C24 9.44771 23.5523 9 23 9H1ZM0 14C0 13.4477 0.447715 13 1 13H23C23.5523 13 24 13.4477 24 14C24 14.5523 23.5523 15 23 15H1C0.447716 15 0 14.5523 0 14ZM1 17C0.447715 17 0 17.4477 0 18C0 18.5523 0.447715 19 1 19H18C18.5523 19 19 18.5523 19 18C19 17.4477 18.5523 17 18 17H1Z" fill="#172B4D"/>
</svg>
