<svg width="145" height="44" viewBox="0 0 145 44" fill="none" xmlns="http://www.w3.org/2000/svg">
<path fill-rule="evenodd" clip-rule="evenodd" d="M2 1C0.895431 1 0 1.89543 0 3V42C0 43.1046 0.89543 44 2 44H37C38.1046 44 39 43.1046 39 42V3C39 1.89543 38.1046 1 37 1H2ZM10 8C8.89543 8 8 8.89543 8 10V12C8 13.1046 8.89543 14 10 14H29C30.1046 14 31 13.1046 31 12V10C31 8.89543 30.1046 8 29 8H10ZM8.20768 19.606C8.34229 18.5096 9.34017 17.73 10.4365 17.8646L29.2949 20.1801C30.3912 20.3147 31.1709 21.3126 31.0362 22.409L30.7925 24.394C30.6579 25.4904 29.66 26.27 28.5637 26.1354L9.70529 23.8199C8.60896 23.6853 7.82933 22.6874 7.96394 21.591L8.20768 19.606ZM10 30C8.89543 30 8 30.8954 8 32V34C8 35.1046 8.89543 36 10 36H29C30.1046 36 31 35.1046 31 34V32C31 30.8954 30.1046 30 29 30H10Z" fill="white"/>
<path d="M50.389 43V3.214H77.464V10.909H59.053V19.06H74.842V26.698H59.053V35.305H77.464V43H50.389ZM92.935 43C90.047 43 87.919 42.297 86.551 40.891C85.221 39.485 84.556 37.452 84.556 34.792V0.819999H92.992V36.445H96.754V43H92.935ZM109.746 43C106.858 43 104.73 42.297 103.362 40.891C102.032 39.485 101.367 37.452 101.367 34.792V0.819999H109.803V36.445H113.565V43H109.746ZM130.763 43.684C128.559 43.684 126.583 43.323 124.835 42.601C123.125 41.879 121.662 40.834 120.446 39.466C119.268 38.098 118.356 36.445 117.71 34.507C117.064 32.569 116.741 30.403 116.741 28.009C116.741 25.615 117.064 23.449 117.71 21.511C118.356 19.573 119.268 17.939 120.446 16.609C121.662 15.241 123.125 14.196 124.835 13.474C126.583 12.752 128.559 12.391 130.763 12.391C132.967 12.391 134.924 12.752 136.634 13.474C138.382 14.196 139.845 15.241 141.023 16.609C142.239 17.939 143.17 19.573 143.816 21.511C144.462 23.449 144.785 25.615 144.785 28.009C144.785 30.403 144.462 32.569 143.816 34.507C143.17 36.445 142.239 38.098 141.023 39.466C139.845 40.834 138.382 41.879 136.634 42.601C134.924 43.323 132.967 43.684 130.763 43.684ZM130.763 37.015C132.435 37.015 133.727 36.502 134.639 35.476C135.551 34.45 136.007 32.987 136.007 31.087V24.988C136.007 23.088 135.551 21.625 134.639 20.599C133.727 19.573 132.435 19.06 130.763 19.06C129.091 19.06 127.799 19.573 126.887 20.599C125.975 21.625 125.519 23.088 125.519 24.988V31.087C125.519 32.987 125.975 34.45 126.887 35.476C127.799 36.502 129.091 37.015 130.763 37.015Z" fill="white"/>
</svg>
